<mxfile host="app.diagrams.net" agent="Mozilla/5.0 (Macintosh; Intel Mac OS X 10_15_7) AppleWebKit/537.36 (KHTML, like Gecko) Chrome/138.0.0.0 Safari/537.36" version="28.2.3">
  <diagram name="Page-1" id="VDYFPTNihtdMcj8wsnXd">
    <mxGraphModel grid="1" page="1" gridSize="10" guides="1" tooltips="1" connect="1" arrows="1" fold="1" pageScale="1" pageWidth="850" pageHeight="1100" math="0" shadow="0">
      <root>
        <mxCell id="0" />
        <mxCell id="1" parent="0" />
        <mxCell id="8-G214X6WqGmG6zUbcWX-13" value="" style="edgeStyle=none;rounded=0;orthogonalLoop=1;jettySize=auto;html=1;" edge="1" parent="1" source="Xip_sZ_SH6kj1jJwu2ze-1" target="8-G214X6WqGmG6zUbcWX-2">
          <mxGeometry relative="1" as="geometry" />
        </mxCell>
        <mxCell id="Xip_sZ_SH6kj1jJwu2ze-1" value="Start" style="ellipse;whiteSpace=wrap;html=1;aspect=fixed;" vertex="1" parent="1">
          <mxGeometry x="60" y="10" width="40" height="40" as="geometry" />
        </mxCell>
        <mxCell id="8-G214X6WqGmG6zUbcWX-19" value="" style="edgeStyle=none;rounded=0;orthogonalLoop=1;jettySize=auto;html=1;" edge="1" parent="1" source="8-G214X6WqGmG6zUbcWX-2" target="8-G214X6WqGmG6zUbcWX-17">
          <mxGeometry relative="1" as="geometry" />
        </mxCell>
        <mxCell id="8-G214X6WqGmG6zUbcWX-2" value="User Login" style="rounded=1;whiteSpace=wrap;html=1;" vertex="1" parent="1">
          <mxGeometry x="40" y="70" width="80" height="40" as="geometry" />
        </mxCell>
        <mxCell id="8-G214X6WqGmG6zUbcWX-38" value="" style="edgeStyle=orthogonalEdgeStyle;rounded=0;orthogonalLoop=1;jettySize=auto;html=1;" edge="1" parent="1" source="8-G214X6WqGmG6zUbcWX-8" target="8-G214X6WqGmG6zUbcWX-37">
          <mxGeometry relative="1" as="geometry" />
        </mxCell>
        <mxCell id="8-G214X6WqGmG6zUbcWX-41" style="edgeStyle=orthogonalEdgeStyle;rounded=0;orthogonalLoop=1;jettySize=auto;html=1;exitX=0;exitY=0.5;exitDx=0;exitDy=0;entryX=0;entryY=0.25;entryDx=0;entryDy=0;" edge="1" parent="1" source="8-G214X6WqGmG6zUbcWX-8" target="8-G214X6WqGmG6zUbcWX-2">
          <mxGeometry relative="1" as="geometry" />
        </mxCell>
        <mxCell id="8-G214X6WqGmG6zUbcWX-8" value="Wins?" style="rhombus;whiteSpace=wrap;html=1;" vertex="1" parent="1">
          <mxGeometry x="50" y="340" width="60" height="50" as="geometry" />
        </mxCell>
        <mxCell id="8-G214X6WqGmG6zUbcWX-23" value="" style="edgeStyle=none;rounded=0;orthogonalLoop=1;jettySize=auto;html=1;" edge="1" parent="1" source="8-G214X6WqGmG6zUbcWX-17" target="8-G214X6WqGmG6zUbcWX-22">
          <mxGeometry relative="1" as="geometry" />
        </mxCell>
        <mxCell id="8-G214X6WqGmG6zUbcWX-59" value="" style="edgeStyle=orthogonalEdgeStyle;rounded=0;orthogonalLoop=1;jettySize=auto;html=1;" edge="1" parent="1" source="8-G214X6WqGmG6zUbcWX-17" target="8-G214X6WqGmG6zUbcWX-57">
          <mxGeometry relative="1" as="geometry" />
        </mxCell>
        <mxCell id="8-G214X6WqGmG6zUbcWX-17" value="Success?" style="rhombus;whiteSpace=wrap;html=1;" vertex="1" parent="1">
          <mxGeometry x="45" y="140" width="70" height="60" as="geometry" />
        </mxCell>
        <mxCell id="8-G214X6WqGmG6zUbcWX-21" value="Yes" style="text;strokeColor=none;fillColor=none;html=1;fontSize=24;fontStyle=1;verticalAlign=middle;align=center;" vertex="1" parent="1">
          <mxGeometry x="70" y="230" width="80" height="40" as="geometry" />
        </mxCell>
        <mxCell id="8-G214X6WqGmG6zUbcWX-28" style="edgeStyle=orthogonalEdgeStyle;rounded=0;orthogonalLoop=1;jettySize=auto;html=1;exitX=0.5;exitY=0;exitDx=0;exitDy=0;entryX=1;entryY=0.5;entryDx=0;entryDy=0;" edge="1" parent="1">
          <mxGeometry relative="1" as="geometry">
            <mxPoint y="-80" as="sourcePoint" />
            <mxPoint x="-110" y="-110" as="targetPoint" />
          </mxGeometry>
        </mxCell>
        <mxCell id="8-G214X6WqGmG6zUbcWX-34" style="edgeStyle=orthogonalEdgeStyle;rounded=0;orthogonalLoop=1;jettySize=auto;html=1;exitX=0.5;exitY=0;exitDx=0;exitDy=0;entryX=1;entryY=0.75;entryDx=0;entryDy=0;" edge="1" parent="1" source="8-G214X6WqGmG6zUbcWX-22" target="8-G214X6WqGmG6zUbcWX-2">
          <mxGeometry relative="1" as="geometry" />
        </mxCell>
        <mxCell id="8-G214X6WqGmG6zUbcWX-36" value="" style="edgeStyle=orthogonalEdgeStyle;rounded=0;orthogonalLoop=1;jettySize=auto;html=1;" edge="1" parent="1" source="8-G214X6WqGmG6zUbcWX-22" target="8-G214X6WqGmG6zUbcWX-35">
          <mxGeometry relative="1" as="geometry" />
        </mxCell>
        <mxCell id="8-G214X6WqGmG6zUbcWX-22" value="Create User?" style="rhombus;whiteSpace=wrap;html=1;" vertex="1" parent="1">
          <mxGeometry x="180" y="120" width="100" height="100" as="geometry" />
        </mxCell>
        <mxCell id="8-G214X6WqGmG6zUbcWX-29" value="Yes" style="text;strokeColor=none;fillColor=none;html=1;fontSize=24;fontStyle=1;verticalAlign=middle;align=center;" vertex="1" parent="1">
          <mxGeometry x="290" y="140" width="70" height="20" as="geometry" />
        </mxCell>
        <mxCell id="8-G214X6WqGmG6zUbcWX-30" value="No" style="text;strokeColor=none;fillColor=none;html=1;fontSize=24;fontStyle=1;verticalAlign=middle;align=center;" vertex="1" parent="1">
          <mxGeometry x="120" y="100" width="70" height="30" as="geometry" />
        </mxCell>
        <mxCell id="8-G214X6WqGmG6zUbcWX-40" style="edgeStyle=orthogonalEdgeStyle;rounded=0;orthogonalLoop=1;jettySize=auto;html=1;exitX=0.5;exitY=0;exitDx=0;exitDy=0;entryX=1;entryY=0.25;entryDx=0;entryDy=0;" edge="1" parent="1" source="8-G214X6WqGmG6zUbcWX-35" target="8-G214X6WqGmG6zUbcWX-2">
          <mxGeometry relative="1" as="geometry" />
        </mxCell>
        <mxCell id="8-G214X6WqGmG6zUbcWX-35" value="Create user" style="rounded=1;whiteSpace=wrap;html=1;" vertex="1" parent="1">
          <mxGeometry x="380" y="155" width="90" height="30" as="geometry" />
        </mxCell>
        <mxCell id="8-G214X6WqGmG6zUbcWX-45" value="" style="edgeStyle=orthogonalEdgeStyle;rounded=0;orthogonalLoop=1;jettySize=auto;html=1;" edge="1" parent="1" source="8-G214X6WqGmG6zUbcWX-37" target="8-G214X6WqGmG6zUbcWX-44">
          <mxGeometry relative="1" as="geometry" />
        </mxCell>
        <mxCell id="8-G214X6WqGmG6zUbcWX-37" value="Home Screen" style="rounded=1;whiteSpace=wrap;html=1;" vertex="1" parent="1">
          <mxGeometry x="20" y="430" width="120" height="40" as="geometry" />
        </mxCell>
        <mxCell id="8-G214X6WqGmG6zUbcWX-42" value="No" style="text;strokeColor=none;fillColor=none;html=1;fontSize=24;fontStyle=1;verticalAlign=middle;align=center;" vertex="1" parent="1">
          <mxGeometry x="-30" y="340" width="50" height="20" as="geometry" />
        </mxCell>
        <mxCell id="8-G214X6WqGmG6zUbcWX-47" value="" style="edgeStyle=orthogonalEdgeStyle;rounded=0;orthogonalLoop=1;jettySize=auto;html=1;" edge="1" parent="1" source="8-G214X6WqGmG6zUbcWX-44" target="8-G214X6WqGmG6zUbcWX-46">
          <mxGeometry relative="1" as="geometry" />
        </mxCell>
        <mxCell id="8-G214X6WqGmG6zUbcWX-51" style="edgeStyle=orthogonalEdgeStyle;rounded=0;orthogonalLoop=1;jettySize=auto;html=1;entryX=1;entryY=0.5;entryDx=0;entryDy=0;" edge="1" parent="1" source="8-G214X6WqGmG6zUbcWX-44" target="8-G214X6WqGmG6zUbcWX-37">
          <mxGeometry relative="1" as="geometry" />
        </mxCell>
        <mxCell id="8-G214X6WqGmG6zUbcWX-44" value="Log out?" style="rhombus;whiteSpace=wrap;html=1;" vertex="1" parent="1">
          <mxGeometry x="50" y="530" width="60" height="60" as="geometry" />
        </mxCell>
        <mxCell id="8-G214X6WqGmG6zUbcWX-46" value="End" style="ellipse;whiteSpace=wrap;html=1;aspect=fixed;" vertex="1" parent="1">
          <mxGeometry x="60" y="660" width="40" height="40" as="geometry" />
        </mxCell>
        <mxCell id="8-G214X6WqGmG6zUbcWX-48" value="Yes" style="text;strokeColor=none;fillColor=none;html=1;fontSize=24;fontStyle=1;verticalAlign=middle;align=center;" vertex="1" parent="1">
          <mxGeometry x="85" y="630" width="50" height="20" as="geometry" />
        </mxCell>
        <mxCell id="8-G214X6WqGmG6zUbcWX-52" value="No" style="text;strokeColor=none;fillColor=none;html=1;fontSize=24;fontStyle=1;verticalAlign=middle;align=center;" vertex="1" parent="1">
          <mxGeometry x="100" y="500" width="60" height="30" as="geometry" />
        </mxCell>
        <mxCell id="8-G214X6WqGmG6zUbcWX-55" value="" style="edgeStyle=orthogonalEdgeStyle;rounded=0;orthogonalLoop=1;jettySize=auto;html=1;" edge="1" parent="1" source="8-G214X6WqGmG6zUbcWX-53" target="8-G214X6WqGmG6zUbcWX-54">
          <mxGeometry relative="1" as="geometry" />
        </mxCell>
        <mxCell id="8-G214X6WqGmG6zUbcWX-53" value="Game" style="ellipse;whiteSpace=wrap;html=1;aspect=fixed;" vertex="1" parent="1">
          <mxGeometry x="640" y="40" width="40" height="40" as="geometry" />
        </mxCell>
        <mxCell id="8-G214X6WqGmG6zUbcWX-54" value="Mini game" style="shape=process;whiteSpace=wrap;html=1;backgroundOutline=1;" vertex="1" parent="1">
          <mxGeometry x="600" y="120" width="120" height="60" as="geometry" />
        </mxCell>
        <mxCell id="8-G214X6WqGmG6zUbcWX-62" style="edgeStyle=orthogonalEdgeStyle;rounded=0;orthogonalLoop=1;jettySize=auto;html=1;entryX=0.5;entryY=0;entryDx=0;entryDy=0;" edge="1" parent="1" source="8-G214X6WqGmG6zUbcWX-57" target="8-G214X6WqGmG6zUbcWX-8">
          <mxGeometry relative="1" as="geometry" />
        </mxCell>
        <mxCell id="8-G214X6WqGmG6zUbcWX-57" value="Game" style="rounded=1;whiteSpace=wrap;html=1;" vertex="1" parent="1">
          <mxGeometry x="50" y="260" width="60" height="30" as="geometry" />
        </mxCell>
      </root>
    </mxGraphModel>
  </diagram>
</mxfile>
